HIERARCHY
ROOT Hips
{
  OFFSET 13.6774 106.653 -34.4427
  CHANNELS 6 Xposition Yposition Zposition Zrotation Xrotation Yrotation
  JOINT ToSpine
  {
    OFFSET -2.69724 7.43032 -0.144315
    CHANNELS 3 Zrotation Xrotation Yrotation
    JOINT Spine
    {
      OFFSET -0.0310711 10.7595 1.96963
      CHANNELS 3 Zrotation Xrotation Yrotation
      JOINT Spine1
      {
        OFFSET 19.9056 3.91189 0.764692
        CHANNELS 3 Zrotation Xrotation Yrotation
        JOINT Neck
        {
          OFFSET 25.9749 7.03908 -0.130764
          CHANNELS 3 Zrotation Xrotation Yrotation
          JOINT Head
          {
            OFFSET 9.52751 0.295786 -0.907742
            CHANNELS 3 Zrotation Xrotation Yrotation
            End Site
            {
              OFFSET 16.4037 0.713936 2.7358
            }
          }
        }
        JOINT LeftShoulder
        {
          OFFSET 17.7449 4.33886 11.7777
          CHANNELS 3 Zrotation Xrotation Yrotation
          JOINT LeftArm
          {
            OFFSET 0.911315 1.27913 9.80584
            CHANNELS 3 Zrotation Xrotation Yrotation
            JOINT LeftForeArm
            {
              OFFSET 28.6126 1.18197 -3.53199
              CHANNELS 3 Zrotation Xrotation Yrotation
              JOINT LeftHand
              {
                OFFSET 27.5088 0.0218783 0.327423
                CHANNELS 3 Zrotation Xrotation Yrotation
                End Site
                {
                  OFFSET 18.6038 -0.000155887 0.382096
                }
              }
            }
          }
        }
        JOINT RightShoulder
        {
          OFFSET 17.1009 2.89543 -12.2328
          CHANNELS 3 Zrotation Xrotation Yrotation
          JOINT RightArm
          {
            OFFSET 1.4228 0.178766 -10.211
            CHANNELS 3 Zrotation Xrotation Yrotation
            JOINT RightForeArm
            {
              OFFSET 28.733 1.87905 2.64907
              CHANNELS 3 Zrotation Xrotation Yrotation
              JOINT RightHand
              {
                OFFSET 27.4588 0.290562 -0.101845
                CHANNELS 3 Zrotation Xrotation Yrotation
                End Site
                {
                  OFFSET 17.8396 -0.255518 -0.000602873
                }
              }
            }
          }
        }
      }
    }
  }
  JOINT LeftUpLeg
  {
    OFFSET -5.61296 -2.22332 -10.2353
    CHANNELS 3 Zrotation Xrotation Yrotation
    JOINT LeftLeg
    {
      OFFSET 2.56703 -44.7417 -7.93097
      CHANNELS 3 Zrotation Xrotation Yrotation
      JOINT LeftFoot
      {
        OFFSET 3.16933 -46.5642 -3.96578
        CHANNELS 3 Zrotation Xrotation Yrotation
        JOINT LeftToeBase
        {
          OFFSET 0.346054 -6.02161 12.8035
          CHANNELS 3 Zrotation Xrotation Yrotation
          End Site
          {
            OFFSET 0.134235 -1.35082 5.13018
          }
        }
      }
    }
  }
  JOINT RightUpLeg
  {
    OFFSET -5.7928 -1.72406 10.6446
    CHANNELS 3 Zrotation Xrotation Yrotation
    JOINT RightLeg
    {
      OFFSET -2.57161 -44.7178 -7.85259
      CHANNELS 3 Zrotation Xrotation Yrotation
      JOINT RightFoot
      {
        OFFSET -3.10148 -46.5936 -4.03391
        CHANNELS 3 Zrotation Xrotation Yrotation
        JOINT RightToeBase
        {
          OFFSET -0.0828122 -6.13587 12.8035
          CHANNELS 3 Zrotation Xrotation Yrotation
          End Site
          {
            OFFSET -0.131328 -1.35082 5.13018
          }
        }
      }
    }
  }
}
MOTION
Frames: 10
Frame Time: 0.03333333333333333
0.0000 93.1000 0.0000 -50.3070 -63.7702 -140.5211 -71.1513 0.9801 88.4139 74.8137 72.2659 17.8645 2.8796 22.7359 -1.0588 -139.1563 19.9836 -176.4481 -154.7925 57.0583 -178.7697 -1.0723 -20.4383 -30.2252 -121.8027 19.2938 -96.1600 15.1115 6.6687 -69.1729 0.3635 0.5096 0.5604 -1.5827 9.0591 35.3701 -50.8936 -25.9438 157.8626 12.7134 4.1754 107.0126 -0.3259 0.5527 0.7149 -27.7019 20.4215 103.6514 -3.8061 53.1493 -4.1024 -0.8715 -0.0183 -0.8302 2.4290 -8.0267 0.5018 -60.5563 -9.0486 69.2137 -0.3506 40.8995 -9.5146 -18.7330 -4.6511 1.2508 5.2727 -31.7559 0.0299 
0.0000 93.1000 0.0000 -57.5534 -57.5515 -148.9630 -71.1724 -0.4564 87.9665 81.1895 71.0415 14.9017 4.0954 22.6001 -2.4437 -137.0186 19.2661 -175.1046 -150.0637 55.1110 176.9678 -1.2359 -20.3059 -31.4047 -124.7747 11.5020 -92.3926 13.9414 5.6733 -67.1464 -0.4122 0.3092 -0.4952 -3.2657 8.5675 35.4171 -50.9160 -22.2383 155.7418 12.3349 4.7592 107.1176 0.3926 -1.1625 -1.4414 -28.2738 17.0590 93.5376 -4.5140 49.9210 -10.8686 -2.6065 -3.3170 -0.0784 4.9193 -12.7796 2.3826 -58.9983 -9.2828 74.8545 1.8716 42.8585 1.1760 -13.3513 -7.7846 0.6026 1.4715 -31.9485 -14.4951 
0.0000 93.1000 0.0000 -63.3885 -51.8076 -155.2035 -71.1497 -0.3537 88.2570 79.6148 71.1787 15.8700 5.9800 22.1071 -2.6216 -136.0654 18.1145 -172.2494 -146.3990 53.1887 177.9040 -1.4607 -21.1126 -33.2231 -127.4331 6.3357 -89.4477 12.2488 4.9075 -64.3293 -0.4683 0.2742 -0.2534 -2.6137 8.0838 33.2998 -49.7375 -20.6131 155.8306 10.6180 3.4325 105.9612 0.3567 -0.8578 -0.7894 -31.1181 16.2636 87.7099 -4.3511 48.0640 -10.4721 -3.6891 -3.5948 0.0560 4.6329 -11.5524 0.9602 -56.7793 -9.3395 76.2057 2.4064 42.3255 8.3009 -13.1763 -12.1348 0.4356 1.4913 -28.2337 -17.1338 
0.0000 93.1000 0.0000 -66.8181 -46.4802 -158.8494 -71.1092 -0.4542 88.4171 83.6428 70.8312 12.5672 5.8898 21.9504 -1.7871 -136.5056 17.5225 -168.6011 -144.8100 51.8421 178.4056 -2.0021 -21.4436 -34.7869 -129.3455 2.5877 -84.4457 9.8653 5.8053 -61.4307 -0.1871 -0.0492 -0.0125 -1.9516 7.4825 32.7727 -48.8577 -18.3279 155.7138 7.2135 2.6361 105.6677 0.0554 0.2771 0.1552 -32.2414 17.4686 87.4819 -4.7895 49.9582 -4.1518 -2.5325 -3.7403 -0.3578 4.0691 -9.1569 -2.6607 -55.2462 -9.0105 77.7253 0.5976 42.4887 -0.4986 -15.2695 -18.7165 0.7193 0.8621 -21.1988 -0.6231 
0.0000 93.1000 0.0000 -68.8369 -43.2763 -161.3075 -71.1400 -0.3740 88.4635 84.7206 70.6661 9.1288 6.3289 20.7661 -0.7424 -136.4998 16.2160 -167.0395 -142.6490 50.1572 177.1993 -2.0752 -21.5241 -35.4551 -131.3555 0.6229 -82.2366 8.2163 5.0099 -59.0870 -0.0605 0.0848 0.1287 -1.9608 6.9333 36.2213 -48.9943 -15.3287 152.8802 8.1840 2.1590 104.9046 0.1644 0.3997 0.3312 -31.5595 18.6320 89.7188 -4.7931 51.2091 -3.2213 -2.4532 -4.4980 -0.6173 3.5811 -9.7212 -1.0726 -51.1472 -9.4603 81.8798 1.3986 45.8587 -3.3453 -18.7661 -19.2815 0.6586 2.3373 -23.9804 0.4596 
0.0000 93.1000 0.0000 -70.5966 -41.9848 -165.2618 -71.1515 0.5157 88.3844 90.6029 70.1970 2.4352 7.2511 20.4592 -1.9223 -135.3944 15.4090 -167.4525 -140.5902 49.0796 176.7792 -1.4227 -21.5244 -36.2141 -133.7529 -1.0518 -80.1342 7.4848 5.8292 -57.2971 0.5159 0.5342 0.5444 -0.9687 6.7450 38.6927 -48.5742 -13.1481 149.6188 6.9063 1.9927 105.1349 0.0071 1.0272 1.0957 -32.9728 19.4714 93.0817 -5.0578 52.4945 -3.2186 -1.8407 -6.1103 -1.3079 2.3270 -7.0515 -1.0414 -49.8528 -10.4435 83.2219 2.0530 50.0681 -3.3433 -19.2919 -20.2534 0.2385 4.5842 -25.2586 -1.7701 
0.0000 93.1000 0.0000 -70.5270 -41.1865 -164.3825 -71.1445 -0.7435 88.3630 88.6779 69.9380 3.6658 8.0784 20.1719 -1.8921 -135.1903 15.0497 -167.6168 -139.5815 48.3465 174.5681 -2.2832 -22.0212 -37.9913 -132.9775 -2.1799 -79.3952 8.8490 5.6858 -55.3820 -0.3044 -0.0149 -0.2454 -2.5264 7.1522 38.2611 -47.4602 -15.5754 148.7533 6.8255 2.5386 104.7058 0.1638 -0.2893 -0.4356 -33.3307 20.9228 95.2300 -5.2838 53.0480 -4.3090 -1.7188 -6.8579 -0.5592 3.1686 -7.9249 -0.9998 -50.1002 -10.5484 83.9923 1.8954 49.6123 -1.2931 -18.9323 -18.9579 0.1297 1.6425 -24.9211 -4.0923 
0.0000 93.1000 0.0000 -70.2923 -40.3928 -165.8296 -71.3601 -0.7199 88.5010 88.2948 70.0003 4.9793 8.7180 19.1457 -1.5832 -136.9716 15.2427 -165.5710 -142.1939 47.9418 180.1554 -2.0818 -21.2738 -38.2618 -134.2730 -2.2664 -79.3061 8.3774 5.6477 -54.4045 -0.5246 -0.0013 -0.4778 -2.6915 7.7603 37.4517 -46.7344 -16.8735 148.5425 6.8075 2.4502 104.5144 0.3841 -0.7884 -0.7348 -32.3305 22.8003 97.1698 -4.9061 53.4424 -6.4284 -1.1320 -6.9841 -0.5787 3.4255 -7.2426 -0.7283 -49.3111 -10.2539 85.1045 1.9816 50.9130 -0.2263 -18.4663 -19.3195 0.1814 1.1585 -24.0961 -4.2447 
0.0000 93.1000 0.0000 -71.2585 -41.5077 -167.2615 -71.5473 -0.0062 88.6733 92.2795 69.1164 0.5505 7.9625 19.0289 -1.5251 -137.0299 14.7558 -165.2888 -141.3697 47.3739 177.0633 -1.5926 -21.4480 -38.0232 -133.4486 -1.9945 -79.3832 7.9218 5.9561 -53.3786 -0.0118 0.2034 -0.0137 -1.9521 8.0318 38.1046 -46.3905 -16.9687 148.4704 6.5961 1.3655 104.2344 0.0808 -0.1870 0.1285 -33.1684 22.9672 99.0910 -4.9056 54.2296 -6.9384 -0.9948 -6.8718 -0.8624 3.0238 -7.5932 -2.0494 -48.2466 -11.6857 85.8144 2.7348 52.9550 0.8181 -15.9775 -20.1762 0.5488 2.0152 -23.1324 -7.3989 
0.0000 93.1000 0.0000 -69.9139 -41.2492 -166.2637 -71.4836 0.2771 88.6955 91.3794 68.8562 0.3355 7.3832 19.2322 -1.3060 -136.9771 14.1497 -164.3284 -143.5663 47.1035 178.8820 -1.6597 -21.0740 -38.9765 -133.2029 -2.2683 -79.3710 8.0598 6.3445 -52.3087 -0.0637 0.3100 0.3648 -1.9009 7.9578 37.5275 -46.4576 -16.9009 148.6460 7.5454 2.3202 104.2032 0.0221 0.2799 0.3944 -33.4087 21.9596 99.1043 -4.9407 53.3396 -7.3950 -0.9021 -6.5782 -1.0885 2.3824 -7.2969 -0.8611 -48.0624 -11.9567 86.1459 2.7454 52.8441 1.8529 -16.0723 -18.9131 0.8395 2.5034 -23.2055 -9.1680 
